<?xml version="1.0" encoding="iso-8859-1"?>
<!-- Uploaded to: SVG Repo, www.svgrepo.com, Generator: SVG Repo Mixer Tools -->
<svg height="800px" width="800px" version="1.1" id="Layer_1" xmlns="http://www.w3.org/2000/svg" xmlns:xlink="http://www.w3.org/1999/xlink" 
	 viewBox="0 0 512 512" xml:space="preserve">
<path style="fill:#C97629;" d="M32,88h448c17.672,0,32,14.328,32,32v256c0,17.672-14.328,32-32,32H32c-17.672,0-32-14.328-32-32V120
	C0,102.328,14.328,88,32,88z"/>
<g>
	<path style="fill:#A35425;" d="M296,328c-17.672,0-32-14.328-32-32s14.328-32,32-32s32,14.328,32,32S313.672,328,296,328z M296,280
		c-8.84,0-16,7.16-16,16s7.16,16,16,16s16-7.16,16-16S304.84,280,296,280z"/>
	<path style="fill:#A35425;" d="M384,328c-17.672,0-32-14.328-32-32s14.328-32,32-32s32,14.328,32,32S401.672,328,384,328z M384,280
		c-8.84,0-16,7.16-16,16s7.16,16,16,16s16-7.16,16-16S392.84,280,384,280z"/>
</g>
<g>
	<path style="fill:#612B14;" d="M153.04,128L153.04,128c-4.384-0.576-8.4,2.512-8.976,6.888C144.016,135.256,144,135.632,144,136
		v224c-0.024,4.416,3.536,8.024,7.952,8.048c0.312,0,0.624-0.016,0.928-0.048l0,0c4.072-0.448,7.144-3.904,7.12-8V136
		C160.032,131.96,157.048,128.528,153.04,128z"/>
	<path style="fill:#612B14;" d="M221.76,163.44L221.76,163.44c-3.152-3.096-8.224-3.04-11.312,0.112
		c-1.456,1.488-2.28,3.488-2.288,5.568v158c0.016,4.416,3.616,7.984,8.032,7.968c2.08-0.008,4.08-0.832,5.568-2.288l0,0
		c1.512-1.56,2.32-3.672,2.24-5.84V169.04C224.016,166.952,223.208,164.944,221.76,163.44z"/>
	<path style="fill:#612B14;" d="M119.12,128L119.12,128c-4.072,0.448-7.144,3.904-7.12,8v224c-0.032,4.04,2.952,7.472,6.96,8l0,0
		c4.384,0.576,8.4-2.512,8.976-6.888c0.048-0.368,0.064-0.744,0.064-1.112V136c0.024-4.416-3.536-8.024-7.952-8.048
		C119.736,127.952,119.432,127.968,119.12,128z"/>
	<path style="fill:#612B14;" d="M84.4,357.36L84.4,357.36c3.992,1.896,8.76,0.208,10.664-3.784c0.512-1.064,0.776-2.232,0.776-3.416
		v-204.4c-0.016-4.416-3.608-7.992-8.024-7.976c-1.184,0-2.352,0.272-3.416,0.776l0,0c-2.72,1.368-4.424,4.16-4.4,7.2v204.4
		C79.976,353.2,81.68,355.992,84.4,357.36z"/>
	<path style="fill:#612B14;" d="M50.4,163.28L50.4,163.28c-1.472,1.52-2.272,3.568-2.24,5.68v158c-0.032,2.112,0.768,4.16,2.24,5.68
		l0,0c3.152,3.096,8.216,3.048,11.312-0.112c1.424-1.448,2.24-3.376,2.288-5.408V168.88c-0.064-4.416-3.696-7.952-8.112-7.888
		C53.832,161.024,51.864,161.84,50.4,163.28z"/>
	<path style="fill:#612B14;" d="M187.6,138.64L187.6,138.64c-3.992-1.896-8.76-0.208-10.664,3.784
		c-0.512,1.064-0.776,2.232-0.776,3.416v204.4c0.016,4.416,3.608,7.992,8.024,7.976c1.184,0,2.352-0.272,3.416-0.776l0,0
		c2.72-1.368,4.424-4.16,4.4-7.2v-204.4C192.024,142.8,190.32,140.008,187.6,138.64z"/>
</g>
<path style="fill:#70B7E5;" d="M272,176h184c4.416,0,8,3.584,8,8v40c0,4.416-3.584,8-8,8H272c-4.416,0-8-3.584-8-8v-40
	C264,179.584,267.584,176,272,176z"/>
<path style="fill:#4C9CD6;" d="M272,184h192c0-4.416-3.584-8-8-8H272c-4.416,0-8,3.584-8,8v40c0,4.416,3.584,8,8,8V184z"/>
<path style="fill:#B06328;" d="M496,136v240c0,8.84-7.16,16-16,16H48c-8.84,0-16,7.16-16,16h448c17.672,0,32-14.328,32-32V120l0,0
	C503.16,120,496,127.16,496,136z"/>
<g>
	<circle style="fill:#7F4122;" cx="384" cy="296" r="16"/>
	<circle style="fill:#7F4122;" cx="296" cy="296" r="16"/>
</g>
<g>
	<path style="fill:#C9D5E3;" d="M400,192L400,192c4.416,0,8,3.584,8,8v16c0,4.416-3.584,8-8,8l0,0c-4.416,0-8-3.584-8-8v-16
		C392,195.584,395.584,192,400,192z"/>
	<path style="fill:#C9D5E3;" d="M432,192L432,192c4.416,0,8,3.584,8,8v16c0,4.416-3.584,8-8,8l0,0c-4.416,0-8-3.584-8-8v-16
		C424,195.584,427.584,192,432,192z"/>
</g>
<g>
	<path style="fill:#7F4122;" d="M48,408h64l0,0l0,0c0,8.84-7.16,16-16,16H64C55.16,424,48,416.84,48,408L48,408L48,408z"/>
	<path style="fill:#7F4122;" d="M400,408h64l0,0l0,0c0,8.84-7.16,16-16,16h-32C407.16,424,400,416.84,400,408L400,408L400,408z"/>
</g>
<circle style="fill:#F6B545;" cx="448" cy="280" r="8"/>
<circle style="fill:#3CB54A;" cx="448" cy="312" r="8"/>
</svg>